<?xml version="1.0" encoding="utf-8"?>
<!-- Generator: Adobe Illustrator 19.2.0, SVG Export Plug-In . SVG Version: 6.00 Build 0)  -->
<svg version="1.1" xmlns="http://www.w3.org/2000/svg" xmlns:xlink="http://www.w3.org/1999/xlink" x="0px" y="0px"
	 viewBox="0 0 100 100" style="enable-background:new 0 0 100 100;" xml:space="preserve">
<style type="text/css">
	.st0{display:none;}
	.st1{display:inline;}
	.st2{fill:#F5F5F5;}
	.st3{fill:#C8C8C8;}
	.st4{fill:#FFFFFF;}
	.st5{fill:none;stroke:#FFFFFF;stroke-miterlimit:10;}
	.st6{fill:none;stroke:#231F20;stroke-linecap:round;stroke-miterlimit:10;}
	.st7{fill:url(#SVGID_1_);}
	.st8{fill:url(#SVGID_2_);}
	.st9{fill:url(#SVGID_3_);}
	.st10{fill:url(#SVGID_4_);}
	.st11{fill:#1A1A1A;}
	.st12{fill:none;stroke:#1A1A1A;stroke-width:18;stroke-miterlimit:10;}
	.st13{fill:none;}
	.st14{fill:url(#SVGID_5_);}
	.st15{fill:url(#SVGID_6_);}
	.st16{fill:url(#SVGID_7_);}
	.st17{fill:url(#SVGID_8_);}
	.st18{fill:#EDEDED;}
</style>
<g id="Layer_1" class="st0">
	<rect x="-597.9" y="-30.6" class="st1" width="745.5" height="321.8"/>
</g>
<g id="Layer_2">
	<path class="st2" d="M39.3,20.4c-1.1-0.5-1.1-1.9,0-2.4l8.2-4l8.2-4c1.1-0.5,2.5,0.1,2.5,1.2v8v8c0,1.1-1.4,1.8-2.5,1.2l-8.2-4
		L39.3,20.4z"/>
	<path class="st2" d="M27,20.6c-1.1-0.5-1.1-1.9,0-2.4l8.2-4l8.2-4c1.1-0.5,2.5,0.1,2.5,1.2v8v8c0,1.1-1.4,1.8-2.5,1.2l-8.2-4
		L27,20.6z"/>
	<rect id="_x3C_Slice_x3E__4_" class="st13" width="100" height="100"/>
	<path class="st18" d="M50.5,93.9c-13,0-25.1-4.6-34-12.9C9,74.1,4.3,65,3.4,55.7c-0.2-1.9,1.4-3.5,3.4-3.5h0.9
		c1.7,0,3.2,1.2,3.4,2.9c1.7,15.7,17.1,31.5,39.4,31.5c21.8,0,38.2-13.6,38.2-31.7c0-15-10.8-30.2-31.5-31.6
		c-1.8-0.1-3.1-1.5-3.1-3.2v-0.9c0-1.9,1.7-3.4,3.6-3.2c25.5,1.6,38.8,20.4,38.8,38.9C96.4,77.2,76.7,93.9,50.5,93.9z"/>
	<g>
		<path class="st4" d="M30.3,42.6h-0.1l-4.3,2.2c-1,0.5-2.3,0-2.6-1.1l0-0.1c-0.2-0.8,0.2-1.6,0.9-2l6.4-3.2
			c0.3-0.1,0.6-0.2,0.9-0.2h2c1,0,1.8,0.8,1.8,1.7v31.5c0,1-0.8,1.7-1.8,1.7h-1.2c-1,0-1.8-0.8-1.8-1.7V42.6z"/>
		<path class="st4" d="M73,55.3c0,11.9-4.7,18.5-12.8,18.5c-7.2,0-12.1-6.4-12.2-18c0-11.7,5.3-18.2,12.8-18.2
			C68.6,37.6,73,44.1,73,55.3z M53,55.8c0,9.1,2.9,14.3,7.5,14.3c5.1,0,7.5-5.6,7.5-14.6c0-8.6-2.3-14.3-7.5-14.3
			C56.2,41.2,53,46.3,53,55.8z"/>
	</g>
</g>
</svg>
