<?xml version="1.0" encoding="utf-8"?>
<!-- Generator: Adobe Illustrator 19.2.0, SVG Export Plug-In . SVG Version: 6.00 Build 0)  -->
<svg version="1.1" xmlns="http://www.w3.org/2000/svg" xmlns:xlink="http://www.w3.org/1999/xlink" x="0px" y="0px"
	 viewBox="0 0 100 100" style="enable-background:new 0 0 100 100;" xml:space="preserve">
<style type="text/css">
	.st0{display:none;}
	.st1{display:inline;}
	.st2{fill:#F5F5F5;}
	.st3{fill:#C8C8C8;}
	.st4{fill:#FFFFFF;}
	.st5{fill:none;stroke:#FFFFFF;stroke-miterlimit:10;}
	.st6{fill:none;stroke:#231F20;stroke-linecap:round;stroke-miterlimit:10;}
	.st7{fill:url(#SVGID_1_);}
	.st8{fill:url(#SVGID_2_);}
	.st9{fill:url(#SVGID_3_);}
	.st10{fill:url(#SVGID_4_);}
	.st11{fill:#1A1A1A;}
	.st12{fill:none;stroke:#1A1A1A;stroke-width:18;stroke-miterlimit:10;}
	.st13{fill:none;}
	.st14{fill:url(#SVGID_5_);}
	.st15{fill:url(#SVGID_6_);}
	.st16{fill:url(#SVGID_7_);}
	.st17{fill:url(#SVGID_8_);}
	.st18{fill:#EDEDED;}
</style>
<g id="Layer_1" class="st0">
	<rect x="-442.9" y="-30.6" class="st1" width="745.5" height="321.8"/>
</g>
<g id="Layer_2">
	<path class="st2" d="M63.6,44.2c3.7,2.8,3.7,9.9,0,12.8L36,78L8.4,99C4.7,101.8,0,98.3,0,92.6l0-42l0-42C0,3,4.7-0.6,8.4,2.2
		l27.6,21L63.6,44.2z"/>
	<path class="st2" d="M97.2,43.2c3.8,2.9,3.8,10,0,12.9L69.2,77.2L41.3,98.2c-3.8,2.9-8.5-0.7-8.5-6.4V49.6V7.4
		c0-5.7,4.7-9.3,8.5-6.4l27.9,21.1L97.2,43.2z"/>
	<rect id="_x3C_Slice_x3E__3_" x="-6" y="-13" class="st13" width="124" height="126"/>
</g>
</svg>
