<?xml version="1.0" encoding="utf-8"?>
<!-- Generator: Adobe Illustrator 19.2.0, SVG Export Plug-In . SVG Version: 6.00 Build 0)  -->
<svg version="1.1" xmlns="http://www.w3.org/2000/svg" xmlns:xlink="http://www.w3.org/1999/xlink" x="0px" y="0px"
	 viewBox="0 0 100 100" style="enable-background:new 0 0 100 100;" xml:space="preserve">
<style type="text/css">
	.st0{display:none;}
	.st1{display:inline;}
	.st2{fill:#F5F5F5;}
	.st3{fill:#C8C8C8;}
	.st4{fill:#FFFFFF;}
	.st5{fill:none;stroke:#FFFFFF;stroke-miterlimit:10;}
	.st6{fill:none;stroke:#231F20;stroke-linecap:round;stroke-miterlimit:10;}
	.st7{fill:url(#SVGID_1_);}
	.st8{fill:url(#SVGID_2_);}
	.st9{fill:url(#SVGID_3_);}
	.st10{fill:url(#SVGID_4_);}
	.st11{fill:#1A1A1A;}
	.st12{fill:none;stroke:#1A1A1A;stroke-width:18;stroke-miterlimit:10;}
	.st13{fill:none;}
	.st14{fill:url(#SVGID_5_);}
	.st15{fill:url(#SVGID_6_);}
	.st16{fill:url(#SVGID_7_);}
	.st17{fill:url(#SVGID_8_);}
	.st18{fill:#EDEDED;}
</style>
<g id="Layer_1" class="st0">
	<rect x="-597.9" y="-177.6" class="st1" width="745.5" height="321.8"/>
</g>
<g id="Layer_2">
	<rect id="_x3C_Slice_x3E__5_" class="st13" width="100" height="100"/>
	<path class="st2" d="M94.8,38.6L94.8,38.6c-2.9,0-5.2-2.3-5.2-5.2v-28c0-2.9,2.3-5.2,5.2-5.2l5.2,0v33.2
		C100,36.3,97.7,38.6,94.8,38.6z"/>
	<path class="st2" d="M61.3,5.4L61.3,5.4c0-2.9,2.3-5.2,5.2-5.2l33.5,0v10.3c0,0,0,0,0,0H66.5C63.6,10.5,61.3,8.2,61.3,5.4z"/>
	<path class="st2" d="M66.8,33L66.8,33c-2-2-2-5.3,0-7.3L86.8,5.8c2.1-2.1,5.4-2.1,7.5,0l0.4,0.4c1.8,1.8,1.8,4.6,0,6.4L74.2,33
		C72.2,35,68.9,35,66.8,33z"/>
	<path class="st2" d="M5.2,61L5.2,61c2.9,0,5.2,2.3,5.2,5.2v28c0,2.9-2.3,5.2-5.2,5.2H0l0-33.2C0,63.3,2.3,61,5.2,61z"/>
	<path class="st2" d="M38.7,94.2L38.7,94.2c0,2.9-2.3,5.2-5.2,5.2H0L0,89c0,0,0,0,0,0h33.5C36.4,89,38.7,91.3,38.7,94.2z"/>
	<path class="st2" d="M33.2,66.6L33.2,66.6c2,2,2,5.3,0,7.3L13.2,93.7c-2.1,2.1-5.4,2.1-7.5,0l-0.4-0.4c-1.8-1.8-1.8-4.6,0-6.4
		l20.5-20.3C27.8,64.6,31.1,64.6,33.2,66.6z"/>
</g>
</svg>
