<?xml version="1.0" encoding="utf-8"?>
<!-- Generator: Adobe Illustrator 19.2.0, SVG Export Plug-In . SVG Version: 6.00 Build 0)  -->
<svg version="1.1" xmlns="http://www.w3.org/2000/svg" xmlns:xlink="http://www.w3.org/1999/xlink" x="0px" y="0px"
	 viewBox="0 0 50 100" style="enable-background:new 0 0 50 100;" xml:space="preserve">
<style type="text/css">
	.st0{display:none;}
	.st1{display:inline;}
	.st2{fill:#F5F5F5;}
	.st3{fill:#C8C8C8;}
	.st4{fill:#FFFFFF;}
	.st5{fill:none;stroke:#FFFFFF;stroke-miterlimit:10;}
	.st6{fill:none;stroke:#231F20;stroke-linecap:round;stroke-miterlimit:10;}
	.st7{fill:url(#SVGID_1_);}
	.st8{fill:url(#SVGID_2_);}
	.st9{fill:url(#SVGID_3_);}
	.st10{fill:url(#SVGID_4_);}
	.st11{fill:#1A1A1A;}
	.st12{fill:none;stroke:#1A1A1A;stroke-width:18;stroke-miterlimit:10;}
	.st13{fill:none;}
	.st14{fill:url(#SVGID_5_);}
	.st15{fill:url(#SVGID_6_);}
	.st16{fill:url(#SVGID_7_);}
	.st17{fill:url(#SVGID_8_);}
	.st18{fill:#EDEDED;}
</style>
<g id="Layer_1" class="st0">
	<rect x="-194.4" y="-177.6" class="st1" width="745.5" height="321.8"/>
</g>
<g id="Layer_2">
	<path class="st3" d="M5,38.9C2.3,37,2.3,32,5,30l19.5-14.7L44.1,0.7c2.6-2,5.9,0.5,5.9,4.5v29.3v29.3c0,4-3.3,6.4-5.9,4.5
		L24.5,53.6L5,38.9z"/>
	<path class="st3" d="M5,70c-2.6-2-2.6-6.9,0-8.9l19.5-14.7l19.5-14.7c2.6-2,5.9,0.5,5.9,4.5v29.3v29.3c0,4-3.3,6.4-5.9,4.5
		L24.5,84.6L5,70z"/>
	<path class="st3" d="M21.5,81.3h-5.7C7.1,81.3,0,74.3,0,65.5V34.1c0-8.7,7.1-15.8,15.8-15.8h5.7c8.7,0,15.8,7.1,15.8,15.8v31.4
		C37.3,74.3,30.2,81.3,21.5,81.3z"/>
</g>
</svg>
