<?xml version="1.0" encoding="utf-8"?>
<!-- Generator: Adobe Illustrator 19.2.0, SVG Export Plug-In . SVG Version: 6.00 Build 0)  -->
<svg version="1.1" xmlns="http://www.w3.org/2000/svg" xmlns:xlink="http://www.w3.org/1999/xlink" x="0px" y="0px"
	 viewBox="0 0 75 100" style="enable-background:new 0 0 75 100;" xml:space="preserve">
<style type="text/css">
	.st0{display:none;}
	.st1{display:inline;}
	.st2{fill:#F5F5F5;}
	.st3{fill:#C8C8C8;}
	.st4{fill:#FFFFFF;}
	.st5{fill:none;stroke:#FFFFFF;stroke-miterlimit:10;}
	.st6{fill:none;stroke:#231F20;stroke-linecap:round;stroke-miterlimit:10;}
	.st7{fill:url(#SVGID_1_);}
	.st8{fill:url(#SVGID_2_);}
	.st9{fill:url(#SVGID_3_);}
	.st10{fill:url(#SVGID_4_);}
	.st11{fill:#1A1A1A;}
	.st12{fill:none;stroke:#1A1A1A;stroke-width:18;stroke-miterlimit:10;}
	.st13{fill:none;}
	.st14{fill:url(#SVGID_5_);}
	.st15{fill:url(#SVGID_6_);}
	.st16{fill:url(#SVGID_7_);}
	.st17{fill:url(#SVGID_8_);}
	.st18{fill:#EDEDED;}
</style>
<g id="Layer_1" class="st0">
	<rect x="-181.9" y="-31.1" class="st1" width="745.5" height="321.8"/>
</g>
<g id="Layer_2">
	<path class="st2" d="M14.6,100H7.8C3.5,100,0,96.5,0,92.3V7.8C0,3.5,3.5,0,7.8,0h6.8c4.3,0,7.7,3.5,7.7,7.8v84.5
		C22.3,96.5,18.9,100,14.6,100z"/>
	<path class="st2" d="M67.4,100h-7.1c-4.2,0-7.6-3.4-7.6-7.6V7.6c0-4.2,3.4-7.6,7.6-7.6h7.1C71.6,0,75,3.4,75,7.6v84.8
		C75,96.6,71.6,100,67.4,100z"/>
	<rect id="_x3C_Slice_x3E__1_" x="0" y="-13.5" class="st13" width="76" height="128"/>
</g>
</svg>
