<?xml version="1.0" encoding="utf-8"?>
<!-- Generator: Adobe Illustrator 19.2.0, SVG Export Plug-In . SVG Version: 6.00 Build 0)  -->
<svg version="1.1" xmlns="http://www.w3.org/2000/svg" xmlns:xlink="http://www.w3.org/1999/xlink" x="0px" y="0px"
	 viewBox="0 0 73.9 100.5" style="enable-background:new 0 0 73.9 100.5;" xml:space="preserve">
<style type="text/css">
	.st0{display:none;}
	.st1{display:inline;}
	.st2{fill:#F5F5F5;}
	.st3{fill:#C8C8C8;}
	.st4{fill:#FFFFFF;}
	.st5{fill:none;stroke:#FFFFFF;stroke-miterlimit:10;}
	.st6{fill:none;stroke:#231F20;stroke-linecap:round;stroke-miterlimit:10;}
	.st7{fill:url(#SVGID_1_);}
	.st8{fill:url(#SVGID_2_);}
	.st9{fill:url(#SVGID_3_);}
	.st10{fill:url(#SVGID_4_);}
	.st11{fill:#1A1A1A;}
	.st12{fill:none;stroke:#1A1A1A;stroke-width:18;stroke-miterlimit:10;}
	.st13{fill:none;}
	.st14{fill:url(#SVGID_5_);}
	.st15{fill:url(#SVGID_6_);}
	.st16{fill:url(#SVGID_7_);}
	.st17{fill:url(#SVGID_8_);}
	.st18{fill:#EDEDED;}
</style>
<g id="Layer_1" class="st0">
	<rect x="-307" y="-31.1" class="st1" width="745.5" height="321.8"/>
</g>
<g id="Layer_2">
	<path class="st2" d="M70.4,44.1c4.2,2.9,4.2,10,0,12.9L39.6,78.1L8.8,99.2c-4.2,2.9-9.4-0.7-9.4-6.4V50.5V8.2
		c0-5.7,5.2-9.3,9.4-6.4l30.8,21.2L70.4,44.1z"/>
	<path class="st2" d="M66.8,99.8h-7.5c-4.2,0-7.6-3.4-7.6-7.6V7.9c0-4.2,3.4-7.6,7.6-7.6h7.5c4.2,0,7.6,3.4,7.6,7.6v84.3
		C74.4,96.3,71,99.8,66.8,99.8z"/>
	<rect id="_x3C_Slice_x3E__2_" x="-0.1" y="-13.5" class="st13" width="74" height="128"/>
</g>
</svg>
