<?xml version="1.0" encoding="utf-8"?>
<!-- Generator: Adobe Illustrator 19.2.0, SVG Export Plug-In . SVG Version: 6.00 Build 0)  -->
<svg version="1.1" xmlns="http://www.w3.org/2000/svg" xmlns:xlink="http://www.w3.org/1999/xlink" x="0px" y="0px"
	 viewBox="0 0 92.9 100" style="enable-background:new 0 0 92.9 100;" xml:space="preserve">
<style type="text/css">
	.st0{display:none;}
	.st1{display:inline;}
	.st2{fill:#F5F5F5;}
	.st3{fill:#C8C8C8;}
	.st4{fill:#FFFFFF;}
	.st5{fill:none;stroke:#FFFFFF;stroke-miterlimit:10;}
	.st6{fill:none;stroke:#231F20;stroke-linecap:round;stroke-miterlimit:10;}
	.st7{fill:url(#SVGID_1_);}
	.st8{fill:url(#SVGID_2_);}
	.st9{fill:url(#SVGID_3_);}
	.st10{fill:url(#SVGID_4_);}
	.st11{fill:#1A1A1A;}
	.st12{fill:none;stroke:#1A1A1A;stroke-width:18;stroke-miterlimit:10;}
	.st13{fill:none;}
	.st14{fill:url(#SVGID_5_);}
	.st15{fill:url(#SVGID_6_);}
	.st16{fill:url(#SVGID_7_);}
	.st17{fill:url(#SVGID_8_);}
	.st18{fill:#EDEDED;}
</style>
<g id="Layer_1" class="st0">
	<rect x="-449.6" y="-177.8" class="st1" width="745.5" height="321.8"/>
</g>
<g id="Layer_2">
	<path class="st2" d="M59,36.7L59,36.7c1.4-2.2,3.7-2.2,5.1,0L77.9,58c1.4,2.2,1.4,5.7,0,7.9l-2.6,3.9L59,44.6
		C57.6,42.4,57.6,38.9,59,36.7z"/>
	<path class="st2" d="M91.9,36.6L91.9,36.6c1.4,2.2,1.4,5.7,0,7.8L75.4,69.8L70.3,62c0,0,0,0,0,0l16.5-25.4
		C88.2,34.4,90.5,34.4,91.9,36.6z"/>
	<path class="st2" d="M75.5,19.8L75.5,19.8c2,0,3.6,2.5,3.6,5.5l-0.1,30.1c0,3.1-1.7,5.7-3.7,5.7l-0.4,0c-1.7,0-3.1-2.2-3.1-4.8
		l0.1-30.9C71.9,22.3,73.5,19.8,75.5,19.8z"/>
	<path class="st2" d="M5,38.9C2.3,37,2.3,32,5,30l19.5-14.7L44.1,0.7c2.6-2,5.9,0.5,5.9,4.5v29.3v29.3c0,4-3.3,6.4-5.9,4.5
		L24.5,53.6L5,38.9z"/>
	<path class="st2" d="M5,70c-2.6-2-2.6-6.9,0-8.9l19.5-14.7l19.5-14.7c2.6-2,5.9,0.5,5.9,4.5v29.3v29.3c0,4-3.3,6.4-5.9,4.5
		L24.5,84.6L5,70z"/>
	<path class="st2" d="M21.5,81.3h-5.7C7.1,81.3,0,74.3,0,65.5V34.1c0-8.7,7.1-15.8,15.8-15.8h5.7c8.7,0,15.8,7.1,15.8,15.8v31.4
		C37.3,74.3,30.2,81.3,21.5,81.3z"/>
</g>
</svg>
